<?xml version="1.0" encoding="UTF-8"?>
<svg xmlns="http://www.w3.org/2000/svg" xmlns:xlink="http://www.w3.org/1999/xlink" width="105px" height="37px" viewBox="0 0 105 37" version="1.1">
  <title>44C0332B-4F4C-4FEB-B7B5-454971B5B3B7</title>
  <g id="Final" stroke="none" stroke-width="1" fill="none" fill-rule="evenodd">
    <g id="Artist-landing-Final" transform="translate(-735.000000, -925.000000)">
      <g id="Group-8" transform="translate(0.000000, 845.000000)">
        <g id="logos" transform="translate(135.000000, 80.000000)">
          <g id="tiktok" transform="translate(600.000000, 0.000000)">
            <rect id="Rectangle" x="0" y="0" width="105" height="37"></rect>
            <g transform="translate(0.000000, 4.000000)" fill="#FFFFFE">
              <path d="M18.5512072,5.01199478 C17.2039892,4.13364307 16.2319266,2.72843218 15.9289165,1.09091737 C15.8628466,0.737147369 15.8271537,0.373508245 15.8271537,0 L11.5272955,0 L11.5204607,17.2254107 C11.4483154,19.1544441 9.86036002,20.7023777 7.91319712,20.7023777 C7.30869569,20.7023777 6.73836834,20.5513042 6.23714856,20.2871155 C5.08662134,19.6820625 4.29909874,18.4765115 4.29909874,17.0895205 C4.29909874,15.0974765 5.92046879,13.4759042 7.91319712,13.4759042 C8.28531484,13.4759042 8.64224408,13.5373964 8.98018772,13.6436792 L8.98018772,10.2737542 L8.98018772,9.2557165 C8.63085272,9.20788922 8.27544233,9.17828186 7.91319712,9.17828186 C3.54954735,9.17828186 0,12.7273693 0,17.0895205 C0,19.7663296 1.3373455,22.1341593 3.37867697,23.5659409 C4.66362222,24.4685858 6.22727605,25 7.91319712,25 C12.2768469,25 15.8271537,21.4516717 15.8271537,17.0895205 L15.8271537,8.3545899 C17.5130747,9.56469588 19.5794672,10.2783092 21.8083764,10.2783092 L21.8083764,6.9372324 L21.8083764,5.97992773 C20.6077272,5.97992773 19.4890958,5.62312107 18.5512072,5.01199478" id="Fill-111"></path>
              <polygon id="Fill-114" points="25.9149612 6.00103246 39.4721968 6.00103246 38.227501 9.87807841 34.7106089 9.87731924 34.7106089 24.212596 30.3279735 24.212596 30.3279735 9.87731924 25.9179989 9.88491087"></polygon>
              <polygon id="Fill-115" points="61.6810933 6.00103246 75.551971 6.00103246 74.3072752 9.87807841 70.4828164 9.87731924 70.4828164 24.212596 66.0941056 24.212596 66.0941056 9.87731924 61.684131 9.88491087"></polygon>
              <polygon id="Fill-116" points="40.2989816 11.7940542 44.645924 11.7940542 44.6413675 24.2124442 40.324802 24.2124442"></polygon>
              <polygon id="Fill-117" points="46.3695125 5.94986487 50.711139 5.94986487 50.711139 14.431235 55.0140349 10.2102882 60.1971031 10.2102882 54.7543119 15.4902675 60.850967 24.2130515 56.0673558 24.2130515 51.9983625 18.16404 50.711139 19.4143816 50.711139 24.2130515 46.3695125 24.2130515"></polygon>
              <polygon id="Fill-118" points="90.5185455 5.94986487 94.860172 5.94986487 94.860172 14.431235 99.1630678 10.2102882 104.346136 10.2102882 98.9033449 15.4902675 105 24.2130515 100.216389 24.2130515 96.1473955 18.16404 94.860172 19.4143816 94.860172 24.2130515 90.5185455 24.2130515"></polygon>
              <path d="M44.6590621,8.18802952 C44.6590621,9.39585801 43.6794052,10.3751784 42.4711618,10.3751784 C41.2629183,10.3751784 40.2832615,9.39585801 40.2832615,8.18802952 C40.2832615,6.97944186 41.2629183,6.00012147 42.4711618,6.00012147 C43.6794052,6.00012147 44.6590621,6.97944186 44.6590621,8.18802952" id="Fill-119"></path>
              <path d="M81.3169857,9.3446145 C77.2100212,9.3446145 73.8807068,12.6727855 73.8807068,16.7783396 C73.8807068,20.8838936 77.2100212,24.2128238 81.3169857,24.2128238 C85.4239502,24.2128238 88.7532646,20.8838936 88.7532646,16.7783396 C88.7532646,12.6727855 85.4239502,9.3446145 81.3169857,9.3446145 M81.3169857,20.3927151 C79.3204603,20.3927151 77.7021279,18.7749385 77.7021279,16.7783396 C77.7021279,14.7824998 79.3204603,13.1647232 81.3169857,13.1647232 C83.3135112,13.1647232 84.9318435,14.7824998 84.9318435,16.7783396 C84.9318435,18.7749385 83.3135112,20.3927151 81.3169857,20.3927151" id="Fill-121"></path>
            </g>
          </g>
        </g>
      </g>
    </g>
  </g>
</svg>
