<?xml version="1.0" encoding="UTF-8"?>
<svg xmlns="http://www.w3.org/2000/svg" xmlns:xlink="http://www.w3.org/1999/xlink" width="123px" height="37px" viewBox="0 0 123 37" version="1.1">
  <title>09F69295-E2DB-43DB-BEEC-4CD5888EAB67</title>
  <g id="Final" stroke="none" stroke-width="1" fill="none" fill-rule="evenodd">
    <g id="Artist-landing-Final" transform="translate(-1047.000000, -925.000000)">
      <g id="Group-8" transform="translate(0.000000, 845.000000)">
        <g id="logos" transform="translate(135.000000, 80.000000)">
          <g id="deezer" transform="translate(912.000000, 0.000000)">
            <rect id="bounding-box" x="0" y="0" width="123" height="37"></rect>
            <g transform="translate(0.000000, 5.000000)" fill="#FFFFFE">
              <polygon id="Fill-152" points="19.1218831 15.0292095 24.396966 15.0292095 24.396966 11.9357254 19.1218831 11.9357254"></polygon>
              <polygon id="Fill-153" points="19.1218831 10.7207358 24.396966 10.7207358 24.396966 7.62725175 19.1218831 7.62725175"></polygon>
              <polygon id="Fill-154" points="19.1218831 19.3345497 24.396966 19.3345497 24.396966 16.241849 19.1218831 16.241849"></polygon>
              <polygon id="Fill-155" points="0 23.6430234 5.27508287 23.6430234 5.27508287 20.5495393 0 20.5495393"></polygon>
              <polygon id="Fill-156" points="6.37344134 23.6430234 11.6485242 23.6430234 11.6485242 20.5495393 6.37344134 20.5495393"></polygon>
              <polygon id="Fill-157" points="12.7484417 23.6430234 18.0235246 23.6430234 18.0235246 20.5495393 12.7484417 20.5495393"></polygon>
              <polygon id="Fill-158" points="19.1218831 23.6430234 24.396966 23.6430234 24.396966 20.5495393 19.1218831 20.5495393"></polygon>
              <polygon id="Fill-159" points="12.7484417 19.3345497 18.0235246 19.3345497 18.0235246 16.241849 12.7484417 16.241849"></polygon>
              <polygon id="Fill-160" points="6.37344134 19.3345497 11.6485242 19.3345497 11.6485242 16.241849 6.37344134 16.241849"></polygon>
              <polygon id="Fill-161" points="6.37344134 15.0292095 11.6485242 15.0292095 11.6485242 11.9357254 6.37344134 11.9357254"></polygon>
              <path d="M71.1576485,20.2813956 C68.8697265,20.2813956 66.9871603,18.8956338 66.9536405,16.4617378 L77.7875554,16.4617378 C77.9302095,15.8186002 78.0011467,15.1613621 78.0003672,14.501774 C78.0003672,10.1063475 75.0069701,7.30192282 70.6010637,7.30192282 C65.8911405,7.30192282 62.6623251,10.9860595 62.6623251,15.5483414 C62.6623251,20.6190232 66.160858,24 71.1046404,24 C74.839371,24 77.4289714,22.1066217 78.5398023,18.9959037 L74.8580798,17.5506066 C74.352944,19.3695659 73.1080338,20.2813956 71.1576485,20.2813956 M70.5862527,10.7831695 C72.498441,10.7831695 73.815068,11.8313037 73.815068,13.4536398 L73.7815482,13.5883776 L66.9536405,13.5883776 C67.3574373,11.8313037 68.8377657,10.7831695 70.5862527,10.7831695" id="Fill-162"></path>
              <polygon id="Fill-164" points="92.8837871 11.1885577 92.8837871 7.63837544 78.9925536 7.63837544 78.9925536 11.3577632 87.4683887 11.3577632 78.7220565 19.9441596 78.7220565 23.6604139 93.1192053 23.6604139 93.1192053 19.7733873 84.1039351 19.7733873"></polygon>
              <path d="M118.82929,12.8111289 C118.830849,13.0806044 118.81292,13.3492964 118.776282,13.6156385 L122.857124,13.6156385 C122.956125,13.0947048 123.003676,12.5651542 122.999779,12.0340369 C122.999779,9.29541441 121.284811,7.30176615 118.425494,7.30176615 C116.575668,7.30176615 115.264497,8.21516256 114.590983,9.70041094 L114.590983,7.64017717 L110.287195,7.64017717 L110.287195,23.652032 L114.590983,23.652032 L114.590983,13.3508632 C114.590983,11.728527 115.466396,10.8174807 116.811086,10.8174807 C118.021697,10.8174807 118.82929,11.6282571 118.82929,12.8111289" id="Fill-165"></path>
              <path d="M41.3176108,10.0403103 C40.3400796,8.38350638 38.5237735,7.30168781 36.2724895,7.30168781 C31.8977643,7.30168781 28.7032483,10.6826646 28.7032483,15.7188786 C28.7032483,20.6869404 31.8658036,23.999765 36.3722694,23.999765 C38.625892,23.999765 40.4421981,23.017433 41.4852099,21.3637625 L41.4852099,23.6605706 L45.6213987,23.6605706 L45.6213987,0 L41.3176108,0 L41.3176108,10.0403103 Z M37.2453435,20.325812 C34.8576416,20.325812 32.9961228,18.5695215 32.9961228,15.7298456 C32.9961228,12.8564854 34.8467282,11.0336094 37.2453435,11.0336094 C39.5652263,11.0336094 41.4836508,12.8588355 41.4836508,15.7298456 C41.4836508,18.5585544 39.5652263,20.325812 37.2453435,20.325812 L37.2453435,20.325812 Z" id="Fill-167"></path>
              <path d="M101.823365,20.2813956 C99.5354429,20.2813956 97.6528767,18.8956338 97.6193569,16.4617378 L108.453272,16.4617378 C108.595926,15.8186002 108.666863,15.1613621 108.666084,14.501774 C108.666084,10.1063475 105.672686,7.30192282 101.26678,7.30192282 C96.5568568,7.30192282 93.3280415,10.9860595 93.3280415,15.5483414 C93.3280415,20.6190232 96.8265744,24 101.770357,24 C105.505087,24 108.094688,22.1066217 109.205519,18.9959037 L105.522237,17.5506066 C105.01866,19.3695659 103.776089,20.2813956 101.823365,20.2813956 M101.251969,10.7831695 C103.164157,10.7831695 104.480784,11.8313037 104.480784,13.4536398 L104.447265,13.5883776 L97.6146797,13.5883776 C98.0231537,11.8313037 99.5011435,10.7831695 101.251969,10.7831695" id="Fill-169"></path>
              <path d="M55.2603713,20.2813956 C52.9724493,20.2813956 51.0898831,18.8956338 51.0563633,16.4617378 L61.8910577,16.4617378 C62.0305936,15.8186002 62.0976333,15.1613621 62.0929561,14.501774 C62.0929561,10.1063475 59.099559,7.30192282 54.6928731,7.30192282 C49.9837293,7.30192282 46.7541345,10.9860595 46.7541345,15.5483414 C46.7541345,20.6190232 50.2534469,24 55.1964498,24 C58.9311804,24 61.5207807,22.1066217 62.6323912,18.9959037 L58.9608025,17.5506066 C58.4556668,19.3695659 57.2107566,20.2813956 55.2603713,20.2813956 M54.6889754,10.7831695 C56.6011637,10.7831695 57.9177907,11.8313037 57.9177907,13.4536398 L57.8842709,13.5883776 L51.0563633,13.5883776 C51.4601601,11.8313037 52.9404885,10.7831695 54.6889754,10.7831695" id="Fill-171"></path>
            </g>
          </g>
        </g>
      </g>
    </g>
  </g>
</svg>
