<?xml version="1.0" encoding="UTF-8"?>
<svg xmlns="http://www.w3.org/2000/svg" xmlns:xlink="http://www.w3.org/1999/xlink" width="118px" height="37px" viewBox="0 0 118 37" version="1.1">
  <title>097D5B86-6DDC-4221-9A2F-574DFA4127A4</title>
  <g id="Final" stroke="none" stroke-width="1" fill="none" fill-rule="evenodd">
    <g id="Artist-landing-Final" transform="translate(-583.000000, -925.000000)">
      <g id="Group-8" transform="translate(0.000000, 845.000000)">
        <g id="logos" transform="translate(135.000000, 80.000000)">
          <g id="youtube" transform="translate(448.000000, 0.000000)">
            <rect id="bounding-box" x="0" y="0" width="118" height="37"></rect>
            <g transform="translate(0.000000, 5.000000)" fill="#FFFFFE">
              <path d="M54.6239185,23.6532743 C53.8791201,23.1575362 53.3494683,22.3869027 53.0365278,21.3429182 C52.7220227,20.2973894 52.5655524,18.9074693 52.5655524,17.1716136 L52.5655524,14.8079772 C52.5655524,13.0543613 52.7439285,11.6466811 53.1030277,10.5849366 C53.4621269,9.52241989 54.0222904,8.74792551 54.7850828,8.25990912 C55.5478753,7.77420926 56.5477201,7.53020106 57.7861821,7.53020106 C59.0058676,7.53020106 59.9838067,7.77807015 60.7192168,8.27380832 C61.4546269,8.77031867 61.9928846,9.54481304 62.3339897,10.5980636 C62.6750948,11.6520864 62.8456474,13.0543613 62.8456474,14.8079772 L62.8456474,17.1716136 C62.8456474,18.9074693 62.679789,20.3020225 62.3472897,21.3552731 C62.0155728,22.410068 61.4773151,23.1799293 60.7325168,23.6671735 C59.9885008,24.1528734 58.9792677,24.3968816 57.7055999,24.3968816 C56.3951616,24.3968816 55.3679345,24.1490125 54.6239185,23.6532743 M58.7954152,21.1027709 C59.0011735,20.5722848 59.1044439,19.705129 59.1044439,18.5005316 L59.1044439,13.4273232 C59.1044439,12.258246 59.0011735,11.4042173 58.7954152,10.8636928 C58.5888744,10.3231683 58.2250811,10.0536782 57.7055999,10.0536782 C57.2025481,10.0536782 56.848143,10.3231683 56.6423846,10.8636928 C56.4358439,11.4042173 56.3325735,12.258246 56.3325735,13.4273232 L56.3325735,18.5005316 C56.3325735,19.705129 56.4311498,20.5722848 56.6290846,21.1027709 C56.8262371,21.6348015 57.184554,21.8996585 57.7055999,21.8996585 C58.2250811,21.8996585 58.5888744,21.6348015 58.7954152,21.1027709" id="Fill-67"></path>
              <path d="M111.783437,17.2111491 L111.783437,18.0342906 C111.783437,19.0790473 111.813949,19.8635799 111.877319,20.3848 C111.939907,20.9075644 112.069778,21.288248 112.267713,21.5276232 C112.464865,21.7662261 112.769982,21.8859137 113.183064,21.8859137 C113.738533,21.8859137 114.12032,21.6727926 114.326079,21.248867 C114.532619,20.823397 114.644496,20.1153099 114.663272,19.1238336 L117.865436,19.3091562 C117.88343,19.451237 117.892818,19.6458258 117.892818,19.8936949 C117.892818,21.3994417 117.475042,22.5237326 116.641056,23.2673398 C115.80707,24.0109471 114.627284,24.3823646 113.101699,24.3823646 C111.27178,24.3823646 109.988724,23.8163583 109.253313,22.6828012 C108.517903,21.5492442 108.150198,19.7971726 108.150198,17.4227258 L108.150198,14.5811113 C108.150198,12.1379407 108.531203,10.3534377 109.293996,9.22837457 C110.056788,8.10485581 111.36175,7.54271034 113.209663,7.54271034 C114.483331,7.54271034 115.46127,7.77204716 116.142698,8.23303733 C116.824908,8.69325532 117.30449,9.40983636 117.583007,10.3843248 C117.860741,11.358041 118,12.703947 118,14.4220427 L118,17.2111491 L111.783437,17.2111491 Z M112.254413,10.3580707 C112.065866,10.5881797 111.939907,10.9642303 111.877319,11.4869947 C111.813949,12.0097591 111.783437,12.8012414 111.783437,13.8637581 L111.783437,15.0328354 L114.501325,15.0328354 L114.501325,13.8637581 C114.501325,12.8197737 114.465337,12.0267471 114.394143,11.4869947 C114.322167,10.9472424 114.192297,10.5665588 114.00375,10.3441715 C113.815203,10.1233287 113.523386,10.0129072 113.129081,10.0129072 C112.733994,10.0129072 112.442959,10.1279617 112.254413,10.3580707 L112.254413,10.3580707 Z" id="Fill-69"></path>
              <path d="M45.580486,16.9057527 L41.3550071,1.84519616 L45.0422284,1.84519616 L46.5224369,8.67202043 C46.8995302,10.3545959 47.1772649,11.7885302 47.3564233,12.9745953 L47.4643878,12.9745953 C47.589564,12.1251997 47.868081,10.6997594 48.2983742,8.69827448 L49.8325649,1.84519616 L53.5197862,1.84519616 L49.240325,16.9057527 L49.240325,24.1310208 L45.580486,24.1310208 L45.580486,16.9057527 Z" id="Fill-71"></path>
              <path d="M74.8367445,7.84849277 L74.8367445,24.1314068 L71.9303097,24.1314068 L71.6071987,22.139188 L71.5266165,22.139188 C70.7364418,23.6441626 69.5527444,24.397036 67.9739596,24.397036 C66.8794503,24.397036 66.0720638,24.0433786 65.5518003,23.3345193 C65.0315367,22.6264322 64.7717961,21.5191292 64.7717961,20.0141546 L64.7717961,7.84849277 L68.4856173,7.84849277 L68.4856173,19.8010335 C68.4856173,20.5276529 68.5661995,21.0457842 68.7273639,21.3554275 C68.8893106,21.665843 69.1584394,21.8202786 69.5347503,21.8202786 C69.8578614,21.8202786 70.1676725,21.7237563 70.4634012,21.5283954 C70.7599123,21.3338065 70.9789707,21.0859375 71.1229233,20.7847881 L71.1229233,7.84849277 L74.8367445,7.84849277 Z" id="Fill-73"></path>
              <path d="M93.8865272,7.84849277 L93.8865272,24.1314068 L90.9800925,24.1314068 L90.6569814,22.139188 L90.5763992,22.139188 C89.7862245,23.6441626 88.6025271,24.397036 87.0237424,24.397036 C85.929233,24.397036 85.1218466,24.0433786 84.601583,23.3345193 C84.0813194,22.6264322 83.8215788,21.5191292 83.8215788,20.0141546 L83.8215788,7.84849277 L87.5354001,7.84849277 L87.5354001,19.8010335 C87.5354001,20.5276529 87.6159822,21.0457842 87.7771466,21.3554275 C87.9390933,21.665843 88.2082221,21.8202786 88.584533,21.8202786 C88.9076441,21.8202786 89.2174552,21.7237563 89.5131839,21.5283954 C89.8096951,21.3338065 90.0287534,21.0859375 90.172706,20.7847881 L90.172706,7.84849277 L93.8865272,7.84849277 Z" id="Fill-75"></path>
              <polygon id="Fill-78" points="84.9286058 4.79368002 81.2413845 4.79368002 81.2413845 24.1313296 77.6089278 24.1313296 77.6089278 4.79368002 73.9217065 4.79368002 73.9217065 1.84550503 84.9286058 1.84550503"></polygon>
              <path d="M106.178047,10.4515815 C105.953512,9.42458495 105.590501,8.6809777 105.088232,8.21998753 C104.58518,7.76054171 103.894364,7.52966054 103.015784,7.52966054 C102.333573,7.52966054 101.696739,7.72038846 101.105282,8.10107214 C100.513042,8.48175581 100.055367,8.98212705 99.7322555,9.60141368 L99.7056556,9.60141368 L99.7056556,1.02174572 L96.1263988,1.02174572 L96.1263988,24.1314841 L99.1939979,24.1314841 L99.5710912,22.5909893 L99.6516734,22.5909893 C99.9387963,23.1400077 100.369089,23.5731995 100.943335,23.8921089 C101.517581,24.2102462 102.154415,24.370087 102.854619,24.370087 C104.110293,24.370087 105.03425,23.7986754 105.62649,22.6573966 C106.217947,21.5145734 106.514458,19.7316147 106.514458,17.3046598 L106.514458,14.7279023 C106.514458,12.9047905 106.4018,11.478578 106.178047,10.4515815 L106.178047,10.4515815 Z M102.773255,17.0930831 C102.773255,18.2799204 102.723967,19.2096225 102.62539,19.8821894 C102.526814,20.5555285 102.360956,21.0335066 102.127815,21.3161237 C101.894674,21.6002851 101.580169,21.7415937 101.185864,21.7415937 C100.880747,21.7415937 100.598318,21.6705533 100.337795,21.5292448 C100.078055,21.387164 99.86682,21.1755873 99.7056556,20.892198 L99.7056556,11.647685 C99.8308318,11.2059992 100.045978,10.8423035 100.351878,10.5589142 C100.656212,10.2755249 100.987929,10.1342164 101.347028,10.1342164 C101.724122,10.1342164 102.015156,10.2793858 102.221697,10.5720412 C102.428238,10.8639244 102.571408,11.3558017 102.652773,12.0461287 C102.733355,12.7372279 102.773255,13.7194381 102.773255,14.9950759 L102.773255,17.0930831 Z" id="Fill-79"></path>
              <path d="M37.6326583,12.9996139 C37.6326583,12.9996139 37.6326583,6.95655015 36.8463953,4.06011107 C36.4137551,2.46170295 35.1385226,1.20305307 33.5190556,0.776038728 C30.5844561,0 18.8163291,0 18.8163291,0 C18.8163291,0 7.04820212,0 4.1136027,0.776038728 C2.49413568,1.20305307 1.2189032,2.46170295 0.786262973,4.06011107 C0,6.95655015 0,12.9996139 0,12.9996139 C0,12.9996139 0,19.0434499 0.786262973,21.9398889 C1.2189032,23.5375249 2.49413568,24.7961747 4.1136027,25.2239613 C7.04820212,26 18.8163291,26 18.8163291,26 C18.8163291,26 30.5844561,26 33.5190556,25.2239613 C35.1385226,24.7961747 36.4137551,23.5375249 36.8463953,21.9398889 C37.6326583,19.0434499 37.6326583,12.9996139 37.6326583,12.9996139 L37.6326583,12.9996139 Z M24.8302629,13.0003861 L15.0532198,18.5716492 L15.0532198,7.42835081 L24.8302629,13.0003861 Z" id="Fill-81"></path>
            </g>
          </g>
        </g>
      </g>
    </g>
  </g>
</svg>
