<?xml version="1.0" encoding="UTF-8"?>
<svg xmlns="http://www.w3.org/2000/svg" xmlns:xlink="http://www.w3.org/1999/xlink" width="122px" height="37px" viewBox="0 0 122 37" version="1.1">
  <title>48A45045-CF1E-49D3-86AF-9228B598CD8F</title>
  <g id="Final" stroke="none" stroke-width="1" fill="none" fill-rule="evenodd">
    <g id="Artist-landing-Final" transform="translate(-135.000000, -925.000000)">
      <g id="Group-8" transform="translate(0.000000, 845.000000)">
        <g id="spotify" transform="translate(135.000000, 80.000000)">
          <rect id="bounding-box" x="0" y="0" width="122" height="37"></rect>
          <g fill="#FFFFFE">
            <path d="M18.2958967,0 C8.19181125,0 0,8.28258892 0,18.4996086 C0,28.7181939 8.19181125,37 18.2958967,37 C28.4007564,37 36.5917935,28.7181939 36.5917935,18.4996086 C36.5917935,8.28258892 28.4007564,0 18.2958967,0 M26.6866774,26.683558 C26.3576424,27.2284239 25.6554429,27.399086 25.118148,27.0671561 C20.8221117,24.4125003 15.414324,23.8120517 9.04652816,25.2830332 C8.43258748,25.4255126 7.8209694,25.0364344 7.68083918,24.4156317 C7.53993476,23.7956118 7.92316381,23.1771576 8.53865289,23.0354611 C15.5080022,21.4243489 21.4856011,22.117957 26.3080936,25.0982798 C26.8461626,25.4294268 27.0149383,26.1402577 26.6866774,26.683558 M28.9248899,21.6451135 C28.511467,22.3246303 27.6335241,22.5375664 26.9630668,22.1210884 C22.046122,19.0648287 14.5487683,18.1794215 8.73220292,19.9651101 C7.97813202,20.195269 7.18148012,19.7654825 6.95231689,19.0037662 C6.72470206,18.241267 7.15051211,17.4364937 7.90303461,17.2055519 C14.5479941,15.1662188 22.8087091,16.1541798 28.4557246,19.6629287 C29.1261819,20.0801896 29.3375386,20.9687282 28.9248899,21.6451135 M29.1184399,16.3999958 C23.2205836,12.8591499 13.4935335,12.5334829 7.86355041,14.2612403 C6.95928469,14.5383704 6.00314757,14.02247 5.72908073,13.1080972 C5.4550139,12.1937245 5.96521176,11.2276834 6.87025168,10.9497704 C13.3324999,8.96601993 24.0760747,9.34883524 30.8650353,13.42437 C31.6779455,13.9120877 31.9450445,14.9744197 31.4627178,15.7956329 C30.9803912,16.617629 29.9298016,16.8884963 29.1184399,16.3999958" id="Fill-123"></path>
            <path d="M49.7761115,17.0783382 C46.6173751,16.3166219 46.0545316,15.7827159 46.0545316,14.6585384 C46.0545316,13.597772 47.0431851,12.8838097 48.5126169,12.8838097 C49.9371451,12.8838097 51.3492861,13.4263271 52.8303309,14.5426761 C52.8752345,14.5763388 52.9309769,14.5896473 52.9867193,14.5810359 C53.0416875,14.5724245 53.0904621,14.5418932 53.1229785,14.4957049 L54.6651851,12.2974526 C54.7286695,12.2066416 54.7116371,12.081385 54.6257009,12.0124939 C52.8636215,10.5822208 50.8785724,9.88704695 48.5590689,9.88704695 C45.1487175,9.88704695 42.7657296,11.9569113 42.7657296,14.9184457 C42.7657296,18.0944819 44.8212309,19.2178766 48.3724867,20.0868438 C51.3957381,20.790629 51.905936,21.3801176 51.905936,22.4346212 C51.905936,23.6034213 50.8739272,24.3299092 49.2140422,24.3299092 C47.3698976,24.3299092 45.866401,23.701278 44.18329,22.2279479 C44.1414832,22.1919366 44.0849666,22.1754967 44.0315468,22.1786281 C43.9758043,22.1833252 43.9254813,22.2091594 43.8898681,22.2522163 L42.1603051,24.3338235 C42.0875303,24.4199374 42.0968207,24.5483253 42.1812085,24.6234793 C44.1383864,26.3911622 46.5461487,27.3243235 49.14359,27.3243235 C52.8194921,27.3243235 55.1939638,25.2928189 55.1939638,22.1504454 C55.1939638,19.4942238 53.6246602,18.024808 49.7761115,17.0783382" id="Fill-125"></path>
            <path d="M63.5094922,13.9285276 C61.9161884,13.9285276 60.6101128,14.5634217 59.5324263,15.8629583 L59.5324263,14.3998053 C59.5324263,14.283943 59.4395223,14.1900006 59.3257149,14.1900006 L56.4967877,14.1900006 C56.3829803,14.1900006 56.2900763,14.283943 56.2900763,14.3998053 L56.2900763,30.6588875 C56.2900763,30.7747498 56.3829803,30.8686922 56.4967877,30.8686922 L59.3257149,30.8686922 C59.4395223,30.8686922 59.5324263,30.7747498 59.5324263,30.6588875 L59.5324263,25.5265006 C60.6101128,26.7501005 61.9169626,27.3474176 63.5094922,27.3474176 C66.4700334,27.3474176 69.4661878,25.0426972 69.4661878,20.638364 C69.4661878,16.2324651 66.4700334,13.9285276 63.5094922,13.9285276 M66.1773857,20.638364 C66.1773857,22.8820219 64.8109226,24.4469458 62.8545189,24.4469458 C60.9205671,24.4469458 59.4619741,22.8107822 59.4619741,20.638364 C59.4619741,18.4667287 60.9205671,16.8305651 62.8545189,16.8305651 C64.7799546,16.8305651 66.1773857,18.4315003 66.1773857,20.638364" id="Fill-127"></path>
            <path d="M77.1472592,13.9285276 C73.3350979,13.9285276 70.3490081,16.8963248 70.3490081,20.6861181 C70.3490081,24.435203 73.3141945,27.372469 77.1008072,27.372469 C80.9261299,27.372469 83.9215101,24.414066 83.9215101,20.638364 C83.9215101,16.8759706 80.9470333,13.9285276 77.1472592,13.9285276 M77.1472592,24.4704314 C75.1196291,24.4704314 73.5905839,22.822525 73.5905839,20.638364 C73.5905839,18.4455917 75.0669835,16.8532679 77.1008072,16.8532679 C79.1408245,16.8532679 80.6799343,18.5011743 80.6799343,20.6861181 C80.6799343,22.8796733 79.1942443,24.4704314 77.1472592,24.4704314" id="Fill-129"></path>
            <path d="M92.062379,14.1900006 L88.9500946,14.1900006 L88.9500946,10.9724732 C88.9500946,10.8566109 88.8571905,10.7626685 88.7433831,10.7626685 L85.9152302,10.7626685 C85.8006486,10.7626685 85.7077445,10.8566109 85.7077445,10.9724732 L85.7077445,14.1900006 L84.347475,14.1900006 C84.2336676,14.1900006 84.1415377,14.283943 84.1415377,14.3998053 L84.1415377,16.8571822 C84.1415377,16.9730445 84.2336676,17.0669869 84.347475,17.0669869 L85.7077445,17.0669869 L85.7077445,23.4276707 C85.7077445,25.9977784 86.9727875,27.3012293 89.4680344,27.3012293 C90.4830107,27.3012293 91.3245663,27.0898589 92.1181214,26.6342382 C92.18238,26.5982269 92.2226384,26.5277701 92.2226384,26.4526162 L92.2226384,24.1126674 C92.2226384,24.039862 92.1847026,23.9717538 92.124315,23.933394 C92.062379,23.8942513 91.9857331,23.8934685 91.9222487,23.9247826 C91.3779861,24.2019127 90.8507558,24.3295178 90.2623637,24.3295178 C89.3550012,24.3295178 88.9500946,23.9130398 88.9500946,22.9798786 L88.9500946,17.0669869 L92.062379,17.0669869 C92.1769606,17.0669869 92.2690904,16.9730445 92.2690904,16.8571822 L92.2690904,14.3998053 C92.2690904,14.283943 92.1769606,14.1900006 92.062379,14.1900006" id="Fill-131"></path>
            <path d="M102.906755,14.2022131 L102.906755,13.8068722 C102.906755,12.6443349 103.347274,12.1260859 104.336702,12.1260859 C104.925868,12.1260859 105.399679,12.2442968 105.930006,12.4235702 C105.995813,12.4439244 106.063943,12.4337473 106.116588,12.3938218 C106.171556,12.3546791 106.202524,12.291268 106.202524,12.2247255 L106.202524,9.81431987 C106.202524,9.72194317 106.143685,9.64052642 106.056201,9.61312655 C105.49568,9.44481307 104.77877,9.27180247 103.704955,9.27180247 C101.09203,9.27180247 99.7116308,10.7600068 99.7116308,13.5720162 L99.7116308,14.1779447 L98.3529096,14.1779447 C98.2391022,14.1779447 98.145424,14.2718871 98.145424,14.3869665 L98.145424,16.8576519 C98.145424,16.9727313 98.2391022,17.0666737 98.3529096,17.0666737 L99.7116308,17.0666737 L99.7116308,26.8773925 C99.7116308,26.9932548 99.8037606,27.0871972 99.917568,27.0871972 L102.746495,27.0871972 C102.860303,27.0871972 102.953207,26.9932548 102.953207,26.8773925 L102.953207,17.0666737 L105.594003,17.0666737 L109.639973,26.8750439 C109.180872,27.9060618 108.728739,28.1111694 108.112476,28.1111694 C107.613891,28.1111694 107.088984,27.9600787 106.553237,27.6633773 C106.50214,27.6351945 106.442526,27.6304974 106.388332,27.6477202 C106.334138,27.6665087 106.288461,27.7072171 106.266009,27.7604511 L105.306775,29.8874638 C105.261097,29.987669 105.300581,30.1058799 105.395808,30.158331 C106.396849,30.7063284 107.30034,30.9404016 108.416737,30.9404016 C110.505529,30.9404016 111.659861,29.9563549 112.677934,27.3095275 L117.584814,14.4879546 C117.609589,14.4229778 117.601847,14.3501724 117.563137,14.2930241 C117.523652,14.2366587 117.460942,14.2022131 117.392813,14.2022131 L114.44853,14.2022131 C114.360271,14.2022131 114.281302,14.2585786 114.251883,14.3431268 L111.235599,23.0555022 L107.932087,14.3368639 C107.901894,14.2554472 107.824474,14.2022131 107.738537,14.2022131 L102.906755,14.2022131 Z" id="Fill-133"></path>
            <path d="M96.6199401,14.1900006 L93.7917871,14.1900006 C93.6772055,14.1900006 93.5843015,14.283943 93.5843015,14.3998053 L93.5843015,26.8777056 C93.5843015,26.9927851 93.6772055,27.0875103 93.7917871,27.0875103 L96.6199401,27.0875103 C96.7337475,27.0875103 96.8274257,26.9927851 96.8274257,26.8777056 L96.8274257,14.3998053 C96.8274257,14.283943 96.7337475,14.1900006 96.6199401,14.1900006" id="Fill-135"></path>
            <path d="M95.2201089,8.50820727 C94.0998414,8.50820727 93.1901562,9.42571144 93.1901562,10.5585003 C93.1901562,11.692072 94.0998414,12.6103591 95.2201089,12.6103591 C96.3403764,12.6103591 97.2485132,11.692072 97.2485132,10.5585003 C97.2485132,9.42571144 96.3403764,8.50820727 95.2201089,8.50820727" id="Fill-137"></path>
            <path d="M119.999467,18.2021243 C118.879974,18.2021243 118.008998,17.2924486 118.008998,16.1886254 C118.008998,15.0848021 118.891587,14.1657322 120.009532,14.1657322 C121.129025,14.1657322 122,15.074625 122,16.1768826 C122,17.2814887 121.11896,18.2021243 119.999467,18.2021243 M120.009532,14.3661426 C118.990684,14.3661426 118.218807,15.1850073 118.218807,16.1886254 C118.218807,17.1922434 118.984491,18.0001481 119.999467,18.0001481 C121.019088,18.0001481 121.790966,17.1812835 121.790966,16.1768826 C121.790966,15.1740474 121.024508,14.3661426 120.009532,14.3661426 M120.450826,16.3843387 L121.014443,17.1812835 L120.539859,17.1812835 L120.032758,16.4508812 L119.596883,16.4508812 L119.596883,17.1812835 L119.199718,17.1812835 L119.199718,15.0683621 L120.131081,15.0683621 C120.616504,15.0683621 120.936249,15.3196581 120.936249,15.7423989 C120.936249,16.089203 120.738054,16.3005734 120.450826,16.3843387 M120.115597,15.4308233 L119.596883,15.4308233 L119.596883,16.0985972 L120.115597,16.0985972 C120.37418,16.0985972 120.528246,15.9709921 120.528246,15.7651017 C120.528246,15.5474684 120.37418,15.4308233 120.115597,15.4308233" id="Fill-139"></path>
          </g>
        </g>
      </g>
    </g>
  </g>
</svg>
