<?xml version="1.0" encoding="UTF-8"?>
<svg xmlns="http://www.w3.org/2000/svg" xmlns:xlink="http://www.w3.org/1999/xlink" width="99px" height="37px" viewBox="0 0 99 37" version="1.1">
  <title>17181B09-E322-43B6-B0A1-D0CCFED8CD78</title>
  <g id="Final" stroke="none" stroke-width="1" fill="none" fill-rule="evenodd">
    <g id="Artist-landing-Final" transform="translate(-285.000000, -925.000000)">
      <g id="Group-8" transform="translate(0.000000, 845.000000)">
        <g id="logos" transform="translate(135.000000, 80.000000)">
          <g id="apple-music" transform="translate(150.000000, 0.000000)">
            <rect id="bounding-box" x="0" y="0" width="99" height="37"></rect>
            <g transform="translate(0.000000, 5.000000)" fill="#FFFFFE">
              <path d="M18.3374357,8.19146441 C14.7179119,10.6888436 15.1199071,15.853373 18.9541417,17.6264487 C18.8444354,17.9366378 18.7425653,18.2555534 18.6195375,18.5649492 C18.0145857,20.0809885 17.1933558,21.4645429 16.1080472,22.6814996 C15.6872453,23.1519398 15.2021868,23.5454277 14.5948841,23.7469317 C13.8112678,24.0079348 13.061347,23.8516502 12.3208296,23.5470144 C11.8381219,23.3478905 11.3546306,23.1297268 10.8499817,23.0107284 C9.89632068,22.7854248 8.97008619,22.9512292 8.07206189,23.3375773 C7.62304974,23.5303546 7.16149973,23.7144054 6.68819547,23.8238839 C5.88420513,24.0095214 5.16406174,23.7548649 4.51679466,23.2630049 C3.8272123,22.7386188 3.30689106,22.0595347 2.81007832,21.359031 C1.48498313,19.4899632 0.62457241,17.4217715 0.214741076,15.1639757 C-0.0814658925,13.5297314 -0.114377778,11.8962804 0.39262198,10.2945623 C0.912943214,8.65159145 1.82037091,7.29580333 3.35469166,6.44774159 C4.69075748,5.70757171 6.07775836,5.56636031 7.51255984,6.13675918 C8.0054545,6.33270983 8.49834917,6.52628052 8.98889298,6.72778443 C9.41674749,6.90469534 9.83833307,6.89438215 10.2685384,6.73254436 C10.9236417,6.48582107 11.5732596,6.21767807 12.2424679,6.01696748 C14.513388,5.33471015 16.8031149,6.09391976 18.1752271,7.95664095 C18.2292966,8.03041994 18.279448,8.10737223 18.3374357,8.19146441" id="Fill-51"></path>
              <path d="M25.7435502,23.7511363 L22.7689427,23.7511363 L22.7689427,1.68725137 C22.8363337,1.68407808 22.9052919,1.6777315 22.9742501,1.6777315 C24.1073593,1.67693817 25.2396849,1.68090479 26.3727941,1.67293723 C26.5334354,1.67138492 26.5961247,1.72771081 26.6525451,1.8720955 C28.8976059,7.59829719 31.1473683,13.3221189 33.3963471,19.0459406 C33.4198556,19.1070265 33.4402297,19.1720789 33.4715743,19.2291981 C33.5248602,19.3283634 33.5867659,19.3331234 33.6384846,19.2260248 C33.6643439,19.1728722 33.684718,19.1165463 33.7058756,19.0610137 C35.955638,13.337192 38.2054005,7.61257699 40.4496776,1.88637531 C40.5131505,1.72453752 40.5875941,1.67138492 40.7592061,1.67293723 C41.9181746,1.68090479 43.0771431,1.67693817 44.2361117,1.67693817 L44.4594423,1.67693817 L44.4594423,23.7439964 L41.3743449,23.7439964 L41.3743449,7.48088546 C41.3500528,7.47136559 41.3265443,7.4610524 41.3022522,7.45073921 C41.2607205,7.51658497 41.2082182,7.5776708 41.180008,7.64906983 C40.7067038,8.83826023 40.236534,10.0290373 39.7655806,11.2198143 C38.1372259,15.3379513 36.5088712,19.455295 34.8844345,23.573432 C34.8311486,23.7090902 34.7676757,23.7630361 34.6164378,23.7606561 C33.9229373,23.7511363 33.2286533,23.7495496 32.5351528,23.761584 C32.3572719,23.7646228 32.2781267,23.7122635 32.2107357,23.5416991 C30.410769,18.9745416 28.6029661,14.409764 26.7975141,9.84498646 C26.5060089,9.10798987 26.2160708,8.37099329 25.9229983,7.63637667 C25.8963554,7.56973758 25.8469875,7.51261836 25.8085903,7.45232585 C25.7866491,7.46184572 25.7654914,7.47136559 25.7435502,7.48009214 L25.7435502,23.7511363 Z" id="Fill-53"></path>
              <path d="M47.7018116,7.59567922 L50.9138548,7.59567922 L50.9138548,7.85112906 C50.9138548,10.9958594 50.9060187,14.1405897 50.9224746,17.2861134 C50.9248255,17.8025663 50.978895,18.3348857 51.1074081,18.8338855 C51.4623863,20.2110934 52.4701168,21.0067958 53.8751409,21.0916813 C54.5490509,21.1313474 55.2112067,21.0758149 55.8373162,20.800532 C56.9132214,20.3261251 57.5142551,19.455057 57.7791174,18.335679 C57.8809875,17.9017316 57.9397587,17.4471578 57.9421096,17.0013106 C57.9562147,13.9565389 57.9499458,10.9109739 57.9507294,7.86540887 L57.9507294,7.60123248 L61.1729597,7.60123248 C61.2129241,12.9799589 61.2536722,18.3570987 61.2936366,23.745345 L58.1920832,23.745345 L58.1920832,20.994896 C58.1701419,20.9845828 58.1474171,20.9734763 58.1254758,20.9639564 C58.0808097,21.0282155 58.0259565,21.0877147 57.9930447,21.1575271 C57.5354127,22.1237939 56.8591518,22.8837968 55.9148942,23.38359 C55.2503875,23.7358251 54.5357295,23.9159093 53.791294,23.9738219 C52.6785588,24.0579141 51.5940338,23.944469 50.5737654,23.4510224 C49.1875481,22.7814582 48.3788561,21.6359005 47.9698083,20.1714272 C47.788793,19.5240761 47.6978935,18.8624451 47.6971099,18.1912943 C47.6916245,14.7157485 47.6939754,11.2402027 47.6931918,7.76386359 C47.6931918,7.71229763 47.6986771,7.66152499 47.7018116,7.59567922" id="Fill-55"></path>
              <path d="M63.5794454,18.9416187 L66.7695474,18.9416187 C66.8063774,19.0994899 66.837722,19.2589477 66.8823882,19.4160256 C67.2028872,20.531437 67.9739657,21.1430886 69.0678941,21.3620456 C69.9204686,21.5318166 70.7769613,21.5222968 71.6099454,21.2454272 C71.9030179,21.1486419 72.1953068,21.0058438 72.4468476,20.8249663 C73.1379972,20.3275531 73.3926725,19.4723515 73.1332955,18.6552293 C72.9969463,18.2268352 72.7070083,17.9348925 72.3293052,17.7206954 C71.8434631,17.4438259 71.3051187,17.3311741 70.7714759,17.1978959 C69.680682,16.924993 68.5875373,16.6592299 67.5037959,16.3601474 C66.9153,16.1983096 66.3683359,15.9230267 65.8566344,15.5834846 C64.6694557,14.7957154 64.078609,13.6723708 64.041779,12.2507369 C63.990844,10.3094768 64.9954401,8.78788425 66.8494763,7.97948864 C68.0640816,7.44954922 69.3421598,7.29802463 70.6515826,7.36783701 C71.7698031,7.42733619 72.8417903,7.67326616 73.8126909,8.26191145 C75.3376082,9.18692546 76.0945816,10.5768265 76.2011534,12.3514888 C76.201937,12.364182 76.1941009,12.3768752 76.1846975,12.4078147 C76.134546,12.4117814 76.0781256,12.4189213 76.0217053,12.4189213 C75.1511075,12.4197146 74.2805098,12.415748 73.4099121,12.4228879 C73.2594578,12.4244745 73.2124408,12.3744952 73.1857978,12.2285239 C72.944444,10.9306483 72.0017536,10.0651334 70.7025177,9.92392205 C69.9220359,9.83903654 69.1603608,9.89456912 68.4300304,10.2063449 C67.5986135,10.5617533 67.1276601,11.2511506 67.1409815,12.0888991 C67.1496013,12.6132853 67.3713647,13.0321595 67.7694418,13.3582151 C68.2278574,13.7342499 68.7709035,13.9222674 69.3327564,14.0610988 C70.5207187,14.3546281 71.7141664,14.6235644 72.8935089,14.9440667 C73.4012923,15.0821048 73.8965378,15.2907486 74.3690585,15.5255721 C75.7482232,16.2094161 76.4260513,17.3573537 76.4432909,18.9011593 C76.4660157,20.8138598 75.5523191,22.1680613 73.945122,23.0883153 C72.964818,23.6491943 71.8920473,23.9062308 70.7769613,23.9760432 C69.4863452,24.0553754 68.2121851,23.9490702 66.9897436,23.4849766 C64.9954401,22.7265603 63.8380388,21.2898533 63.5778782,19.136776 C63.5731765,19.0971099 63.570042,19.0574438 63.5691833,19.0177777 C63.5684748,18.9987379 63.5739601,18.9804915 63.5794454,18.9416187" id="Fill-57"></path>
              <path d="M99,18.0847511 C98.7163309,20.2441749 97.7297579,21.8966656 95.8702364,22.9644777 C94.5357378,23.7308272 93.081346,23.9529575 91.5681828,23.8561722 C90.450746,23.7847731 89.3858114,23.5118702 88.4039402,22.9541645 C86.9471974,22.1259358 85.9849166,20.8764529 85.4113094,19.307261 C84.8369187,17.7380692 84.7131073,16.1125514 84.8486729,14.458474 C84.9544611,13.1653584 85.2639896,11.926982 85.8932335,10.7885642 C86.9660042,8.84651078 88.608464,7.7144396 90.7681106,7.35189122 C92.2546307,7.10120132 93.7231277,7.19243341 95.1258009,7.78345866 C97.2431322,8.67594645 98.4765443,10.3046375 98.9239892,12.5632266 C98.9521994,12.7052313 98.9678717,12.8488227 98.9937311,13.0201804 C97.9570067,13.0614331 96.9336038,13.1018926 95.9274404,13.142352 C95.7942256,12.780597 95.6892211,12.4243952 95.5348486,12.0919931 C94.7935476,10.5029681 93.3289687,9.85165037 91.7460637,10.0357012 C90.0644231,10.2300652 89.0559089,11.2772509 88.4728984,12.8067766 C88.0191845,13.9991403 87.9502263,15.24307 88.0638507,16.5020727 C88.1484812,17.4461265 88.3733791,18.3528941 88.857654,19.1779495 C89.7251173,20.6567026 91.1238724,21.2524878 92.7522271,21.0739902 C94.3978214,20.8931127 95.3624531,19.9125661 95.8114652,18.3568607 C95.8757217,18.1339371 95.9619195,18.0744379 96.1828993,18.0784045 C97.0401756,18.0934776 97.8982355,18.0847511 98.7555117,18.0847511 L99,18.0847511 Z" id="Fill-59"></path>
              <polygon id="Fill-62" points="79.0870556 23.7469317 82.2802921 23.7469317 82.2802921 7.60123248 79.0870556 7.60123248"></polygon>
              <path d="M14.0574017,0.016514216 C14.120091,1.519067 13.7063416,2.87326848 12.7111489,3.9926465 C11.8452528,4.96605319 10.7748329,5.59119131 9.42074394,5.5523185 C8.77817856,3.23264356 11.7089036,-0.2698752 14.0574017,0.016514216" id="Fill-63"></path>
              <path d="M80.7364896,5.29631839 C79.6629352,5.29393337 78.8354364,4.45618483 78.8354364,3.37012635 C78.83622,2.28644784 79.6660697,1.44235272 80.7349223,1.43837246 C81.8061258,1.43441949 82.6571332,2.29596771 82.6508986,3.3788529 C82.6453789,4.45935812 81.8076931,5.29869331 80.7364896,5.29631839" id="Fill-65"></path>
            </g>
          </g>
        </g>
      </g>
    </g>
  </g>
</svg>
