<?xml version="1.0" encoding="UTF-8"?>
<svg xmlns="http://www.w3.org/2000/svg" xmlns:xlink="http://www.w3.org/1999/xlink" width="178" zoomAndPan="magnify" viewBox="0 0 133.5 30.000001" height="40" preserveAspectRatio="xMidYMid meet" version="1.0">
  <path fill="#000000" d="M 46.242188 12.792969 L 46.242188 13.628906 C 46.226562 14.453125 46.113281 15.261719 45.894531 16.058594 C 45.660156 16.964844 45.320312 17.828125 44.882812 18.652344 C 44.421875 19.542969 43.859375 20.363281 43.195312 21.113281 C 42.300781 22.128906 41.265625 22.976562 40.089844 23.65625 C 39.007812 24.277344 37.855469 24.710938 36.632812 24.964844 C 35.917969 25.136719 35.195312 25.230469 34.460938 25.25 L 23.113281 25.25 C 23.214844 25.039062 23.296875 24.867188 23.386719 24.695312 L 24.789062 21.941406 L 27.234375 16.996094 C 27.324219 16.804688 27.417969 16.605469 27.519531 16.414062 L 27.824219 15.777344 L 28.542969 14.324219 L 17.382812 14.324219 C 17.167969 14.320312 16.96875 14.277344 16.773438 14.195312 C 16.578125 14.109375 16.40625 13.992188 16.261719 13.84375 C 16.113281 13.695312 15.996094 13.523438 15.917969 13.328125 C 15.839844 13.132812 15.796875 12.929688 15.796875 12.71875 C 15.796875 12.472656 15.851562 12.238281 15.960938 12.015625 L 17.1875 9.523438 L 21.398438 0.96875 L 21.398438 0.878906 L 30.085938 0.878906 L 24.675781 11.851562 L 35.128906 11.851562 C 35.398438 11.832031 35.660156 11.863281 35.917969 11.945312 C 36.171875 12.027344 36.402344 12.15625 36.605469 12.332031 C 36.8125 12.503906 36.976562 12.710938 37.097656 12.949219 C 37.21875 13.1875 37.289062 13.441406 37.3125 13.710938 C 37.335938 14.035156 37.285156 14.347656 37.160156 14.648438 L 33.101562 22.839844 C 33.363281 22.859375 33.628906 22.859375 33.890625 22.839844 C 34.429688 22.792969 34.957031 22.695312 35.472656 22.546875 C 36.398438 22.277344 37.246094 21.855469 38.011719 21.273438 C 38.996094 20.550781 39.761719 19.644531 40.304688 18.550781 C 40.652344 17.855469 40.882812 17.121094 40.996094 16.351562 C 41.070312 15.863281 41.09375 15.371094 41.066406 14.878906 C 41.019531 14.089844 40.851562 13.324219 40.566406 12.582031 C 40.28125 11.84375 39.886719 11.164062 39.386719 10.546875 C 38.886719 9.925781 38.308594 9.398438 37.640625 8.960938 C 36.976562 8.523438 36.261719 8.195312 35.496094 7.980469 C 34.863281 7.804688 34.222656 7.710938 33.566406 7.707031 L 28.988281 7.707031 L 29.050781 7.554688 L 30.480469 4.589844 L 31.769531 1.988281 L 32.257812 0.980469 L 32.347656 0.828125 L 34.0625 0.828125 C 34.554688 0.839844 35.046875 0.882812 35.535156 0.949219 C 36.375 1.039062 37.191406 1.230469 37.980469 1.523438 C 39.429688 2.035156 40.734375 2.789062 41.898438 3.785156 C 43.066406 4.777344 44.011719 5.949219 44.738281 7.292969 C 45.347656 8.410156 45.765625 9.59375 45.996094 10.84375 C 46.128906 11.488281 46.210938 12.136719 46.242188 12.792969 Z M 46.242188 12.792969 " fill-opacity="1" fill-rule="nonzero"></path>
  <path fill="#000000" d="M 50.816406 6.144531 L 60.019531 6.144531 C 60.222656 6.125 60.425781 6.128906 60.625 6.160156 C 60.828125 6.1875 61.023438 6.242188 61.210938 6.316406 C 61.398438 6.390625 61.574219 6.488281 61.742188 6.605469 C 61.90625 6.722656 62.054688 6.859375 62.1875 7.011719 C 62.320312 7.164062 62.433594 7.332031 62.527344 7.511719 C 62.617188 7.691406 62.6875 7.878906 62.734375 8.074219 C 62.78125 8.273438 62.804688 8.472656 62.804688 8.671875 C 62.804688 8.875 62.78125 9.074219 62.730469 9.269531 L 61.886719 15.160156 C 61.832031 15.59375 61.703125 16 61.496094 16.386719 C 61.292969 16.769531 61.023438 17.105469 60.695312 17.390625 C 60.367188 17.679688 59.996094 17.898438 59.585938 18.050781 C 59.179688 18.203125 58.753906 18.28125 58.316406 18.277344 L 49.113281 18.277344 Z M 56.90625 15.859375 C 57.15625 15.851562 57.398438 15.800781 57.632812 15.703125 C 57.867188 15.605469 58.074219 15.472656 58.253906 15.296875 C 58.4375 15.125 58.582031 14.921875 58.6875 14.695312 C 58.792969 14.46875 58.855469 14.230469 58.875 13.980469 L 59.433594 10.441406 C 59.59375 9.320312 59.035156 8.574219 58.023438 8.574219 L 53.609375 8.574219 L 52.59375 15.859375 Z M 56.90625 15.859375 " fill-opacity="1" fill-rule="nonzero"></path>
  <path fill="#000000" d="M 64 10.238281 L 67.480469 7.726562 L 66 18.277344 L 62.863281 18.277344 Z M 64.101562 9.472656 L 64.566406 6.144531 L 67.714844 6.144531 L 67.601562 6.960938 Z M 64.101562 9.472656 " fill-opacity="1" fill-rule="nonzero"></path>
  <path fill="#000000" d="M 74.582031 11.035156 C 78.175781 11.035156 79.394531 12.105469 79.394531 14 C 79.394531 16.101562 78.105469 18.277344 75.78125 18.277344 L 67.417969 18.277344 L 69.144531 15.859375 L 74.898438 15.859375 C 75.070312 15.863281 75.238281 15.835938 75.398438 15.773438 C 75.558594 15.714844 75.703125 15.625 75.828125 15.507812 C 75.953125 15.390625 76.050781 15.253906 76.121094 15.097656 C 76.195312 14.941406 76.230469 14.777344 76.238281 14.605469 C 76.359375 13.789062 75.609375 13.457031 74.207031 13.457031 L 72.625 13.457031 C 70.035156 13.457031 68.910156 12.386719 68.910156 10.492188 C 68.910156 8.59375 70.128906 6.144531 72.359375 6.144531 L 80.234375 6.144531 L 78.511719 8.574219 L 73.71875 8.574219 C 73.328125 8.558594 72.976562 8.671875 72.664062 8.910156 C 72.355469 9.144531 72.152344 9.457031 72.066406 9.835938 C 71.945312 10.664062 72.695312 11.015625 74.097656 11.015625 Z M 74.582031 11.035156 " fill-opacity="1" fill-rule="nonzero"></path>
  <path fill="#000000" d="M 84.800781 8.574219 L 82.773438 8.574219 L 81.046875 6.144531 L 92.382812 6.144531 L 90.65625 8.574219 L 87.9375 8.574219 L 86.578125 18.277344 L 83.441406 18.277344 Z M 84.800781 8.574219 " fill-opacity="1" fill-rule="nonzero"></path>
  <path fill="#000000" d="M 93.316406 6.144531 L 100.417969 6.144531 C 102.640625 6.144531 103.789062 7.253906 103.789062 9.167969 C 103.789062 12.074219 101.605469 13.910156 98.714844 13.910156 L 95.355469 13.910156 L 94.746094 18.300781 L 91.609375 18.300781 Z M 98.949219 11.46875 C 99.15625 11.476562 99.359375 11.445312 99.554688 11.375 C 99.75 11.304688 99.925781 11.199219 100.078125 11.058594 C 100.230469 10.917969 100.355469 10.753906 100.441406 10.570312 C 100.53125 10.382812 100.582031 10.183594 100.589844 9.976562 C 100.671875 9.390625 100.589844 8.574219 99.578125 8.574219 L 96.136719 8.574219 L 95.742188 11.46875 Z M 100.589844 14.324219 L 103.261719 18.277344 L 99.617188 18.277344 L 96.980469 14.324219 Z M 100.589844 14.324219 " fill-opacity="1" fill-rule="nonzero"></path>
  <path fill="#000000" d="M 104.722656 9.269531 C 104.765625 8.835938 104.890625 8.421875 105.09375 8.03125 C 105.296875 7.644531 105.5625 7.304688 105.894531 7.015625 C 106.222656 6.722656 106.597656 6.503906 107.011719 6.355469 C 107.425781 6.203125 107.851562 6.132812 108.292969 6.144531 L 114.523438 6.144531 C 114.726562 6.125 114.929688 6.128906 115.128906 6.160156 C 115.328125 6.1875 115.523438 6.238281 115.714844 6.316406 C 115.902344 6.390625 116.078125 6.488281 116.242188 6.605469 C 116.40625 6.722656 116.554688 6.859375 116.6875 7.011719 C 116.820312 7.164062 116.933594 7.332031 117.023438 7.511719 C 117.117188 7.691406 117.1875 7.878906 117.234375 8.078125 C 117.28125 8.273438 117.300781 8.472656 117.300781 8.675781 C 117.296875 8.875 117.273438 9.074219 117.222656 9.269531 L 116.382812 15.160156 C 116.335938 15.597656 116.214844 16.011719 116.011719 16.398438 C 115.808594 16.789062 115.542969 17.128906 115.210938 17.417969 C 114.878906 17.707031 114.507812 17.925781 114.09375 18.074219 C 113.675781 18.222656 113.25 18.292969 112.808594 18.277344 L 106.589844 18.277344 C 106.386719 18.296875 106.1875 18.292969 105.984375 18.261719 C 105.785156 18.234375 105.589844 18.179688 105.402344 18.105469 C 105.214844 18.03125 105.039062 17.933594 104.875 17.816406 C 104.707031 17.699219 104.558594 17.566406 104.425781 17.414062 C 104.296875 17.261719 104.183594 17.09375 104.089844 16.914062 C 103.996094 16.738281 103.925781 16.550781 103.878906 16.351562 C 103.832031 16.15625 103.808594 15.957031 103.808594 15.757812 C 103.808594 15.554688 103.832031 15.359375 103.878906 15.160156 Z M 108.585938 15.886719 L 111.449219 15.886719 C 111.703125 15.882812 111.945312 15.828125 112.175781 15.734375 C 112.410156 15.636719 112.617188 15.5 112.796875 15.328125 C 112.980469 15.152344 113.125 14.953125 113.230469 14.726562 C 113.339844 14.5 113.402344 14.261719 113.417969 14.011719 L 113.90625 10.472656 C 114.066406 9.351562 113.507812 8.605469 112.496094 8.605469 L 109.632812 8.605469 C 109.382812 8.613281 109.144531 8.667969 108.914062 8.765625 C 108.683594 8.863281 108.480469 8.996094 108.300781 9.167969 C 108.121094 9.339844 107.976562 9.539062 107.871094 9.761719 C 107.765625 9.988281 107.703125 10.222656 107.683594 10.472656 L 107.199219 14.011719 C 107.035156 15.109375 107.582031 15.886719 108.585938 15.886719 Z M 108.585938 15.886719 " fill-opacity="1" fill-rule="nonzero"></path>
  <path fill="#000000" d="M 95.03125 23.300781 L 92.210938 23.300781 C 92.117188 23.289062 92.035156 23.3125 91.964844 23.371094 C 91.910156 23.429688 91.882812 23.496094 91.886719 23.574219 C 91.886719 23.660156 91.917969 23.730469 91.988281 23.785156 C 91.988281 23.785156 92.085938 23.835938 92.210938 23.835938 L 93.933594 23.835938 C 94.300781 23.8125 94.617188 23.929688 94.878906 24.191406 C 95.101562 24.414062 95.210938 24.683594 95.214844 24.996094 C 95.214844 25.285156 95.117188 25.542969 94.929688 25.761719 C 94.660156 26.066406 94.320312 26.203125 93.914062 26.167969 L 90.871094 26.167969 L 90.871094 25.15625 L 93.730469 25.15625 C 93.894531 25.15625 93.976562 25.15625 94.027344 25.058594 C 94.070312 25.003906 94.089844 24.945312 94.085938 24.875 C 94.089844 24.796875 94.0625 24.730469 94.003906 24.675781 C 94.003906 24.613281 93.882812 24.582031 93.730469 24.582031 L 92.128906 24.582031 C 91.738281 24.617188 91.398438 24.496094 91.113281 24.230469 C 91.007812 24.121094 90.925781 23.996094 90.871094 23.855469 C 90.8125 23.714844 90.785156 23.570312 90.785156 23.417969 C 90.785156 23.265625 90.8125 23.121094 90.871094 22.980469 C 90.925781 22.839844 91.007812 22.714844 91.113281 22.605469 C 91.398438 22.339844 91.738281 22.222656 92.128906 22.253906 L 95.011719 22.253906 Z M 95.03125 23.300781 " fill-opacity="1" fill-rule="nonzero"></path>
  <path fill="#000000" d="M 97.070312 22.394531 C 97.027344 22.355469 96.996094 22.3125 96.96875 22.261719 L 98.269531 22.261719 C 98.289062 22.3125 98.320312 22.355469 98.359375 22.394531 L 99.375 23.464844 C 99.402344 23.472656 99.433594 23.472656 99.464844 23.464844 C 99.464844 23.464844 99.464844 23.464844 99.546875 23.464844 L 100.5625 22.394531 C 100.601562 22.355469 100.636719 22.3125 100.664062 22.261719 L 101.929688 22.261719 C 101.90625 22.3125 101.871094 22.355469 101.828125 22.394531 L 99.992188 24.410156 L 99.992188 26.15625 L 98.925781 26.15625 L 98.925781 24.339844 Z M 97.070312 22.394531 " fill-opacity="1" fill-rule="nonzero"></path>
  <path fill="#000000" d="M 108.464844 25.410156 C 108.480469 25.515625 108.472656 25.621094 108.441406 25.722656 C 108.410156 25.824219 108.359375 25.917969 108.289062 25.996094 C 108.21875 26.078125 108.132812 26.140625 108.035156 26.183594 C 107.9375 26.226562 107.832031 26.25 107.726562 26.246094 C 107.421875 26.261719 107.164062 26.160156 106.953125 25.945312 L 104.804688 23.464844 C 104.777344 23.433594 104.75 23.417969 104.710938 23.414062 C 104.636719 23.414062 104.601562 23.449219 104.609375 23.523438 L 104.609375 26.167969 L 103.59375 26.167969 L 103.59375 23.089844 C 103.578125 22.964844 103.589844 22.84375 103.628906 22.722656 C 103.671875 22.605469 103.734375 22.5 103.824219 22.410156 C 103.914062 22.324219 104.019531 22.257812 104.140625 22.21875 C 104.261719 22.175781 104.382812 22.164062 104.507812 22.183594 C 104.859375 22.164062 105.144531 22.292969 105.359375 22.566406 L 107.277344 24.84375 C 107.308594 24.863281 107.339844 24.863281 107.371094 24.84375 C 107.421875 24.84375 107.453125 24.84375 107.453125 24.746094 L 107.453125 22.222656 L 108.464844 22.222656 Z M 108.464844 25.410156 " fill-opacity="1" fill-rule="nonzero"></path>
  <path fill="#000000" d="M 114.71875 26.167969 L 112.6875 26.167969 C 112.0625 26.199219 111.535156 25.988281 111.105469 25.53125 C 110.929688 25.339844 110.800781 25.121094 110.710938 24.878906 C 110.625 24.636719 110.585938 24.386719 110.601562 24.128906 C 110.613281 23.871094 110.671875 23.625 110.785156 23.390625 C 110.894531 23.15625 111.042969 22.953125 111.238281 22.777344 C 111.648438 22.410156 112.132812 22.238281 112.6875 22.261719 L 114.71875 22.261719 L 114.71875 23.273438 L 112.6875 23.273438 C 112.402344 23.25 112.152344 23.335938 111.9375 23.523438 C 111.746094 23.707031 111.652344 23.925781 111.652344 24.191406 C 111.652344 24.425781 111.730469 24.632812 111.894531 24.804688 C 112.113281 25.027344 112.378906 25.128906 112.6875 25.109375 L 114.71875 25.109375 Z M 114.71875 26.167969 " fill-opacity="1" fill-rule="nonzero"></path>
  <path fill="#000000" d="M 89.214844 24.441406 L 49.539062 23.746094 " fill-opacity="1" fill-rule="nonzero"></path>
  <path fill="#000000" d="M 89.1875 25.722656 L 49.539062 23.746094 L 89.238281 23.160156 Z M 89.1875 25.722656 " fill-opacity="1" fill-rule="nonzero"></path>
</svg>
